<?xml version="1.0" standalone="no"?>
<!DOCTYPE svg PUBLIC "-//W3C//DTD SVG 20010904//EN"
 "http://www.w3.org/TR/2001/REC-SVG-20010904/DTD/svg10.dtd">
<svg version="1.0" xmlns="http://www.w3.org/2000/svg"
 width="700.000000pt" height="700.000000pt" viewBox="0 0 700.000000 700.000000"
 preserveAspectRatio="xMidYMid meet">
<metadata>
Created by potrace 1.11, written by Peter Selinger 2001-2013
</metadata>
<g transform="translate(0.000000,700.000000) scale(0.100000,-0.100000)"
fill="#000000" stroke="none">
<path d="M3445 6546 c-43 -14 -506 -183 -590 -216 -27 -10 -194 -71 -370 -135
-176 -64 -462 -169 -635 -232 -677 -247 -803 -293 -1035 -378 -448 -163 -443
-160 -451 -231 -6 -50 12 -84 55 -106 31 -15 75 -17 399 -17 201 0 366 -2 369
-4 2 -3 -52 -24 -121 -48 -69 -24 -123 -46 -120 -48 2 -3 1359 -5 3014 -5
1655 -1 3006 2 3002 5 -4 4 -84 35 -178 70 l-171 62 14 29 c19 38 9 100 -22
131 -16 16 -150 69 -417 166 -216 78 -402 146 -413 151 -11 5 -60 23 -110 40
-126 45 -416 150 -440 160 -11 4 -33 13 -50 18 -40 14 -560 202 -700 254 -60
22 -157 57 -215 78 -384 139 -466 169 -626 228 -102 38 -139 43 -189 28z m230
-282 c83 -30 157 -57 165 -60 13 -5 -207 -90 -425 -165 -33 -11 -75 -27 -93
-35 -17 -8 -51 -21 -75 -28 -38 -12 -580 -210 -1212 -442 l-230 -84 -350 2
-350 3 60 22 c33 12 103 37 155 56 117 43 954 348 1335 487 154 56 354 129
445 162 91 33 208 75 260 94 52 19 104 39 115 44 11 5 27 6 35 4 8 -3 83 -30
165 -60z"/>
<path d="M585 4911 c-82 -15 -118 -121 -63 -181 32 -34 62 -40 213 -40 l143 0
-1 -1332 -2 -1333 -41 -1 c-57 -1 -97 -20 -119 -56 -15 -27 -18 -54 -18 -209
0 -122 -4 -179 -11 -180 -6 -1 -51 -2 -101 -3 -109 -2 -128 -8 -157 -49 -21
-30 -22 -41 -23 -218 l0 -187 -158 -1 c-253 -1 -247 7 -247 -336 0 -270 5
-298 57 -326 39 -21 6847 -21 6886 0 52 28 57 56 57 326 0 350 9 338 -246 343
l-171 4 0 184 c-1 199 -4 215 -59 250 -20 14 -48 17 -130 16 l-104 -1 0 180
c0 199 -6 226 -60 254 -16 8 -49 15 -75 15 l-45 0 0 1330 0 1330 146 0 c112 0
154 4 179 16 54 25 75 105 41 157 -36 54 163 51 -2970 52 -1596 0 -2911 -2
-2921 -4z m845 -283 c1 -97 1 -2507 1 -2558 l-1 -45 -160 0 -160 0 0 1332 0
1333 160 0 160 0 0 -62z m1688 -1270 l-3 -1332 -49 -2 c-53 -2 -93 -25 -113
-65 -9 -16 -13 -80 -13 -200 0 -175 0 -177 -22 -181 -38 -6 -1067 -2 -1074 5
-3 3 -7 88 -8 189 -2 196 -6 212 -55 240 -14 8 -46 16 -71 17 -25 2 -47 7 -50
11 -4 6 -5 2637 -1 2648 1 1 330 2 731 2 l730 0 -2 -1332z m545 6 c-1 -729 -4
-1329 -8 -1332 -4 -4 -76 -7 -161 -7 l-154 0 0 268 c-1 343 -1 1346 0 1937 l0
460 163 0 162 0 -2 -1326z m1679 1314 c3 -11 2 -2624 -1 -2651 -1 -5 -15 -6
-31 -3 -48 7 -97 -11 -122 -47 -22 -30 -23 -41 -24 -211 -1 -111 -5 -181 -12
-185 -5 -3 -252 -6 -549 -6 l-538 0 -5 190 c-3 128 -9 197 -18 212 -18 32 -64
53 -117 53 l-45 0 0 1330 0 1330 729 0 c574 0 730 -3 733 -12z m548 -1321 l0
-1332 -160 0 -160 0 0 25 c-1 34 -1 2589 0 2618 0 22 1 22 160 22 l160 0 0
-1333z m-4279 -1559 c0 -4 1 -46 1 -93 0 -47 -1 -93 -1 -103 -1 -18 -18 -19
-338 -18 l-338 1 -3 111 -3 111 341 0 c187 -1 340 -4 341 -9z m2230 -10 c0
-10 1 -54 1 -98 0 -44 -1 -86 -1 -93 -1 -11 -66 -14 -341 -14 -187 0 -340 3
-341 6 -1 9 -1 205 0 212 1 3 154 6 341 5 322 0 340 -1 341 -18z m2231 -57 c2
-42 2 -92 0 -112 l-3 -36 -340 0 c-241 0 -339 3 -340 11 -1 15 -1 188 0 202 1
7 105 11 340 11 l340 0 3 -76z m298 -487 l0 -114 -2864 0 -2865 0 1 114 1 114
2863 0 2864 0 0 -114z m397 -348 c4 -4 8 -56 8 -115 l1 -107 -3276 0 -3275 1
0 110 c0 61 3 112 6 115 12 9 6527 5 6536 -4z"/>
</g>
</svg>
